<svg fill="current" width="282" height="80" viewBox="0 0 282 80" xmlns="http://www.w3.org/2000/svg" xmlns:xlink="http://www.w3.org/1999/xlink" role="img" class="Logo_codeitLogo__s1ctn" style="fill:#6500C3"><title>Codeit Logo</title><defs><path id="a" d="M0 0h14.03v21.286H0z"></path></defs><g fill="current" fill-rule="evenodd"><path d="M183.403 41.281 162.608 58.56c-2.132-5.66-.46-12.143 4.24-16.047a14.31 14.31 0 0 1 9.123-3.296c2.648 0 5.196.71 7.432 2.065m10.772-2.881c-4.505-5.42-11.14-8.524-18.206-8.524a23.656 23.656 0 0 0-15.091 5.449c-10.01 8.319-11.402 23.219-3.118 33.246l.035.062.056.045c4.026 4.818 9.695 7.787 15.968 8.367a23.662 23.662 0 0 0 17.284-5.348 4.678 4.678 0 0 0 .608-6.578 4.67 4.67 0 0 0-6.575-.606 14.307 14.307 0 0 1-9.125 3.293c-2.647 0-5.196-.712-7.428-2.065l24.991-20.766a4.642 4.642 0 0 0 1.667-3.162 4.679 4.679 0 0 0-1.066-3.413M274.847 44.46c3.753 0 6.804-2.966 6.804-6.613a6.812 6.812 0 0 0-6.804-6.804c-3.646 0-6.612 3.051-6.612 6.804-.003 3.647 2.966 6.613 6.612 6.613" fill="current"></path><g transform="translate(267.658 58.48)"><mask id="b" fill="#fff"><use xlink:href="#a"></use></mask><path d="M13.698 4.768C13.074 2.591 11.336 0 6.613 0A6.62 6.62 0 0 0 0 6.613a6.605 6.605 0 0 0 5.938 6.578v8.095l1.033-.648c5.388-3.376 8.04-11.304 6.727-15.87" fill="current" mask="url(#b)"></path></g><path d="M216.516 22.424c-1.49 0-2.77-.524-3.798-1.552-1.028-1.031-1.552-2.31-1.552-3.798 0-1.43.524-2.695 1.558-3.756 1.028-1.058 2.307-1.594 3.795-1.594 1.427 0 2.69.536 3.753 1.6 1.06 1.063 1.6 2.325 1.6 3.752 0 1.489-.537 2.765-1.598 3.796-1.063 1.028-2.328 1.552-3.758 1.552zm-11.519 54.363c-.88 0-1.648-.322-2.277-.954-.633-.633-.955-1.398-.955-2.278 0-.88.322-1.645.955-2.278.632-.632 1.4-.954 2.277-.954h7.373c.2 0 .362-.162.362-.362V38.264c0-.199-.163-.361-.362-.361h-7.373c-.88 0-1.648-.322-2.277-.954-.633-.633-.955-1.398-.955-2.278 0-.877.322-1.645.955-2.278.632-.632 1.4-.954 2.277-.954h11.426c1 0 1.874.367 2.6 1.093.725.725 1.092 1.6 1.092 2.602v34.83c0 .2.162.362.361.362h7.464c.877 0 1.645.321 2.277.954.633.635.954 1.4.954 2.277 0 .88-.321 1.646-.954 2.278-.632.633-1.4.954-2.277.954h-22.943v-.002zM257.755 76.787c-5.717 0-10.453-1.704-14.081-5.063-3.623-3.352-5.46-8.314-5.46-14.754V37.898c0-.2-.161-.362-.36-.362h-5.07c-.943 0-1.727-.292-2.33-.866-.606-.58-.901-1.292-.901-2.182 0-.877.303-1.61.9-2.18.602-.576 1.386-.869 2.332-.869h5.068c.2 0 .362-.162.362-.361v-7.926c0-1.015.356-1.866 1.092-2.6.723-.725 1.6-1.092 2.6-1.092 1.06 0 1.966.367 2.692 1.093.725.725 1.092 1.6 1.092 2.6v7.922c0 .2.162.362.362.362h9.58c.886 0 1.657.295 2.292.871.625.572.94 1.303.94 2.174 0 .885-.308 1.595-.943 2.174-.635.58-1.406.872-2.29.872h-9.582c-.2 0-.362.162-.362.362v17.23c0 4.731.941 8.325 2.796 10.682 1.864 2.368 4.965 3.888 9.215 4.51.965.115 1.762.484 2.376 1.095.611.612.906 1.313.906 2.14 0 .882-.308 1.65-.914 2.283-.603.648-1.363.957-2.312.957M136.28 53.257c0 7.889-6.416 14.304-14.305 14.304-7.888 0-14.304-6.415-14.304-14.304 0-7.888 6.416-14.304 14.304-14.304 7.889 0 14.305 6.416 14.305 14.304M140.95 0a4.674 4.674 0 0 0-4.67 4.67v29.778a23.612 23.612 0 0 0-14.305-4.837c-13.036 0-23.643 10.607-23.643 23.643 0 13.037 10.607 23.644 23.643 23.644a23.612 23.612 0 0 0 14.305-4.837v.168a4.674 4.674 0 0 0 4.67 4.67 4.674 4.674 0 0 0 4.67-4.67V4.669A4.674 4.674 0 0 0 140.95 0M37.048 62.004a4.634 4.634 0 0 0-3.301 1.369 14.21 14.21 0 0 1-10.116 4.183c-3.792 0-7.354-1.459-10.044-4.111l-.071-.075a14.206 14.206 0 0 1-4.184-10.116c0-3.827 1.486-7.417 4.184-10.112a14.206 14.206 0 0 1 10.115-4.184c3.827 0 7.418 1.486 10.116 4.184a4.636 4.636 0 0 0 3.3 1.366 4.644 4.644 0 0 0 3.305-1.37 4.64 4.64 0 0 0 1.368-3.303 4.644 4.644 0 0 0-1.368-3.303c-4.458-4.46-10.395-6.913-16.718-6.913s-12.26 2.455-16.72 6.913c-9.204 9.204-9.218 24.17-.046 33.392l.051.05.008.009.005.005c4.457 4.447 10.387 6.897 16.702 6.897 6.323 0 12.26-2.456 16.718-6.913a4.64 4.64 0 0 0 1.368-3.304 4.644 4.644 0 0 0-1.368-3.303 4.67 4.67 0 0 0-3.304-1.361M70.034 67.561c-7.888 0-14.304-6.415-14.304-14.304 0-7.888 6.416-14.304 14.304-14.304s14.304 6.416 14.304 14.304c0 7.886-6.418 14.304-14.304 14.304m0-37.948c-13.037 0-23.644 10.608-23.644 23.644 0 13.037 10.607 23.644 23.644 23.644 13.036 0 23.644-10.607 23.644-23.644 0-13.036-10.608-23.644-23.644-23.644" fill="current"></path></g></svg>